# AST/ASF file generated using VICON BodyLanguage
# -----------------------------------------------
:version 1.10
:name VICON
:units
  mass 1.0
  length 0.45
  angle deg
:documentation
   .ast/.asf automatically generated from VICON data using
   VICON BodyBuilder and BodyLanguage model FoxedUp or BRILLIANT.MOD
:root
   order TX TY TZ RX RY RZ
   axis XYZ
   position 0 0 0  
   orientation 0 0 0 
:bonedata
  begin
     id 1 
     name lhipjoint
     direction 0.635376 -0.686425 0.353719 
     length 2.47244 
     axis 0 0 0  XYZ
  end
  begin
     id 2 
     name lfemur
     direction 0.34202 -0.939693 0  
     length 7.25268  
     axis 0 0 20  XYZ
    dof rx ry rz
    limits (-160.0 20.0)
           (-70.0 70.0)
           (-60.0 70.0)
  end
  begin
     id 3 
     name ltibia
     direction 0.34202 -0.939693 0   
     length 7.6767   
     axis 0 0 20   XYZ
    dof rx
    limits (-10.0 170.0)
  end
  begin
     id 4 
     name lfoot
     direction 0.0803374 -0.220725 0.972022   
     length 2.22945   
     axis -90 7.62852e-016 20   XYZ
    dof rx rz
    limits (-45.0 90.0)
           (-70.0 20.0)
  end
  begin
     id 5 
     name ltoes
     direction 1.53579e-011 -4.21994e-011 1   
     length 1.11848   
     axis -90 7.62852e-016 20   XYZ
    dof rx
    limits (-90.0 20.0)
  end
  begin
     id 6 
     name rhipjoint
     direction -0.664428 -0.664335 0.342336   
     length 2.55466  
     axis 0 0 0  XYZ 
  end
  begin
     id 7 
     name rfemur
     direction -0.34202 -0.939693 0   
     length 6.83172   
     axis 0 0 -20   XYZ
    dof rx ry rz
    limits (-160.0 20.0)
           (-70.0 70.0)
           (-70.0 60.0)
  end
  begin
     id 8 
     name rtibia
     direction -0.34202 -0.939693 0   
     length 7.62692   
     axis 0 0 -20   XYZ
    dof rx
    limits (-10.0 170.0)
 end
 begin
     id 9 
     name rfoot
     direction -0.0949276 -0.260811 0.960711   
     length 2.19684  
     axis -90 -7.62852e-016 -20   XYZ
    dof rx rz
    limits (-45.0 90.0)
           (-20.0 70.0)
  end
  begin
     id 10 
     name rtoes
     direction -1.53543e-011 -4.2183e-011 1   
     length 1.09848   
     axis -90 -7.62852e-016 -20   XYZ
    dof rx
    limits (-90.0 20.0)
  end
  begin
     id 11 
     name lowerback
     direction 0.0118782 0.999815 -0.0151555   
     length 2.15772   
     axis 0 0 0   XYZ
    dof rx ry rz
    limits (-20.0 45.0)
           (-30.0 30.0)
           (-30.0 30.0)
  end
  begin
     id 12 
     name upperback
     direction 0.00130825 0.999065 0.0432113   
     length 2.14863   
     axis 0 0 0   XYZ
    dof rx ry rz
    limits (-20.0 45.0)
           (-30.0 30.0)
           (-30.0 30.0)
  end
  begin
     id 13 
     name thorax
     direction -0.00347005 0.998773 0.0494011   
     length 2.14936   
     axis 0 0 0   XYZ
    dof rx ry rz
    limits (-20.0 45.0)
           (-30.0 30.0)
           (-30.0 30.0)
  end
  begin
     id 14 
     name lowerneck
     direction -0.0262159 0.99424 0.103921   
     length 1.69373   
     axis 0 0 0   XYZ
    dof rx ry rz
    limits (-20.0 45.0)
           (-30.0 30.0)
           (-30.0 30.0)
  end
  begin
     id 15 
     name upperneck
     direction 0.0353511 0.977394 -0.20845   
     length 1.70857   
     axis 0 0 0   XYZ
    dof rx ry rz
    limits (-20.0 45.0)
           (-30.0 30.0)
           (-30.0 30.0)
  end
  begin
     id 16
     name head
     direction 0.0139214 0.996594 -0.0812836  
     length 1.72777  
     axis 0 0 0   XYZ
    dof rx ry rz
    limits (-20.0 45.0)
           (-30.0 30.0)
           (-30.0 30.0)
  end
  begin
     id 17 
     name lclavicle
     direction 0.841247 0.537205 -0.0609508  
     length 3.55371  
     axis 0 0 0   XYZ
    dof ry rz
    limits (-20.0 10.0)
           (0.0 20.0)
  end
  begin
     id 18 
     name lhumerus
     direction 1 -4.48964e-011 1.60116e-018   
     length 4.91377   
     axis -180 -30 -90   XYZ
    dof rx ry rz
    limits (-60.0 90.0)
           (-90.0 90.0)
           (-90.0 90.0)
  end
  begin
     id 19
     name lradius
     direction 1 -4.48989e-011 -8.93847e-027   
     length 3.00291   
     axis -180 -30 -90   XYZ
    dof rx
    limits (-10.0 170.0)
  end
  begin
     id 20
     name lwrist
     direction 1 -4.48932e-011 -7.31504e-027   
     length 1.50145   
     axis 5.74121e-015 90 90   XYZ
    dof ry
    limits (-180.0 0.0)
 end
  begin
     id 21 
     name lhand
     direction 1 -4.48971e-011 -1.46301e-026   
     length 0.450922   
     axis 9.33524e-015 90 90   XYZ
    dof rx rz
    limits (-90.0 90.0)
           (-45.0 45.0)
  end
  begin
     id 22 
     name lfingers
     direction 1 -4.49039e-011 -2.92602e-026   
     length 0.363545   
     axis 1.86705e-014 90 90   XYZ
    dof rx
    limits (0.0 90.0)
  end
  begin
     id 23
     name lthumb
     direction 0.707107 -6.34941e-011 0.707107   
     length 0.52198   
     axis -90 45 2.85299e-015   XYZ
    dof rx rz
    limits (-45.0 45.0)
           (-45.0 45.0)
  end
  begin
     id 24 
     name rclavicle
     direction -0.825079 0.56158 -0.0622297   
     length 3.39909  
     axis 0 0 0   XYZ 
    dof ry rz
    limits (-10.0 20.0)
           (-20.0 0.0)
  end
  begin
     id 25 
     name rhumerus
     direction -1 -4.48965e-011 1.61691e-027  
     length 4.86725   
     axis -180 30 90   XYZ
    dof rx ry rz
    limits (-90.0 60.0)
           (-90.0 90.0)
           (-90.0 90.0)
  end
  begin
     id 26 
     name rradius
     direction -1 -4.48964e-011 -2.25776e-027   
     length 3.17144   
     axis -180 30 90   XYZ
    dof rx
    limits (-10.0 170.0)
  end
  begin
     id 27 
     name rwrist
     direction -1 -4.48961e-011 -7.31504e-027   
     length 1.58572   
     axis 5.74121e-015 -90 -90   XYZ
    dof ry
    limits (-180.0 0.0)
  end
  begin
     id 28
     name rhand
     direction -1 -4.49013e-011 -1.46301e-026   
     length 0.419368   
     axis 9.33524e-015 -90 -90   XYZ
    dof rx rz
    limits (-90.0 90.0)
           (-45.0 45.0)
  end
  begin
     id 29
     name rfingers
     direction -1 -4.489e-011 -2.92602e-026   
     length 0.338105   
     axis 1.86705e-014 -90 -90   XYZ
    dof rx
    limits (0.0 90.0)
  end
  begin
     id 30
     name rthumb
     direction -0.707107 -6.35022e-011 0.707107   
     length 0.485453   
     axis -90 -45 -2.85299e-015   XYZ
    dof rx rz
    limits (-45.0 45.0)
           (-45.0 45.0)
  end
:hierarchy
  begin
    root lhipjoint rhipjoint lowerback
    lhipjoint lfemur
    lfemur ltibia
    ltibia lfoot
    lfoot ltoes
    rhipjoint rfemur
    rfemur rtibia
    rtibia rfoot
    rfoot rtoes
    lowerback upperback
    upperback thorax
    thorax lowerneck lclavicle rclavicle
    lowerneck upperneck
    upperneck head
    lclavicle lhumerus
    lhumerus lradius
    lradius lwrist
    lwrist lhand lthumb
    lhand lfingers
    rclavicle rhumerus
    rhumerus rradius
    rradius rwrist
    rwrist rhand rthumb
    rhand rfingers
  end

#!OML:ASF H:\Swim 2\Project 1\Capture day 1\Session 1\male.ASF
:FULLY-SPECIFIED
:DEGREES
551
root 3.5953 14.8256 10.6538 100.319 -30.1017 2.34105
lowerback -23.5815 6.65719 16.1824
upperback 1.85656 6.18255 -11.4728
thorax 18.8072 5.47305 -20.7128
lowerneck -10.5321 -2.09535 3.07967
upperneck 8.71173 -4.62715 12.383
head 4.61299 -1.4528 3.00151
rclavicle 3.18055e-014 -6.80837e-014
rhumerus 77.8684 -27.777 -32.7903
rradius 32.0043
rwrist -2.19621
rhand -36.8446 8.42855
rfingers 7.12502
rthumb -9.92474 -21.3175
lclavicle 3.18055e-014 -6.80837e-014
lhumerus 464.33 11.5157 -334.229
lradius 25.2328
lwrist 13.8562
lhand -44.9922 -42.266
lfingers 7.12502
lthumb -17.7762 -13.0585
rfemur -58.504 1.99961 26.9782
rtibia 46.6236
rfoot 13.7222 -4.22676
rtoes -8.19009
lfemur -62.7852 5.88427 -27.7193
ltibia 51.8378
lfoot 24.8724 -2.69633
ltoes 19.4668
552
root 3.65588 14.8262 10.6244 100.225 -30.0801 2.61822
lowerback -23.6387 6.65694 16.2781
upperback 1.68459 6.15869 -11.5641
thorax 18.639 5.44826 -20.8948
lowerneck -10.4596 -2.16887 2.96456
upperneck 8.33944 -4.67533 12.534
head 4.49504 -1.49625 3.0626
rclavicle -6.36111e-015 -3.65764e-014
rhumerus 77.7539 -27.9782 -32.7481
rradius 31.5589
rwrist -0.175771
rhand -36.8841 9.17082
rfingers 7.12502
rthumb -9.9628 -20.5734
lclavicle -6.36111e-015 -3.65764e-014
lhumerus 464.325 11.5063 -334.279
lradius 24.6193
lwrist 13.0553
lhand -44.9467 -43.0976
lfingers 7.12502
lthumb -17.7323 -13.8861
rfemur -58.7671 1.85478 27
rtibia 47.7853
rfoot 13.7165 -4.24698
rtoes -8.11167
lfemur -63.0881 6.27399 -28.0473
ltibia 52.9513
lfoot 25.0133 -2.98759
ltoes 19.4796
553
root 3.7157 14.8306 10.5951 100.126 -30.072 2.87376
lowerback -23.6692 6.65165 16.3768
upperback 1.52448 6.12978 -11.6516
thorax 18.4686 5.42193 -21.0788
lowerneck -10.3759 -2.24841 2.86067
upperneck 7.94258 -4.72499 12.6468
head 4.36674 -1.54418 3.11001
rclavicle 6.99722e-014 -9.18385e-014
rhumerus 77.7407 -28.1951 -32.7775
rradius 31.0197
rwrist 2.20977
rhand -37.0278 9.91779
rfingers 7.12502
rthumb -10.1015 -19.8197
lclavicle 6.99722e-014 -9.18385e-014
lhumerus 464.262 11.5802 -334.384
lradius 24.0078
lwrist 12.1342
lhand -44.9243 -43.8459
lfingers 7.12502
lthumb -17.7108 -14.6324
rfemur -59.0857 1.71633 26.9971
rtibia 49.1835
rfoot 13.7492 -4.17496
rtoes -7.94486
lfemur -63.3764 6.69969 -28.3959
ltibia 54.2156
lfoot 25.1994 -3.20393
ltoes 19.7578
554
root 3.7746 14.8385 10.5664 100.039 -30.071 3.09457
lowerback -23.6846 6.64739 16.4838
upperback 1.37591 6.1001 -11.7283
thorax 18.303 5.39608 -21.2553
lowerneck -10.3731 -2.3409 2.7675
upperneck 7.64637 -4.80696 12.7135
head 4.28352 -1.60118 3.13904
rclavicle 1.59028e-014 8.34896e-015
rhumerus 77.8095 -28.4315 -32.8452
rradius 30.4156
rwrist 4.94358
rhand -37.2576 10.5483
rfingers 7.12502
rthumb -10.3231 -19.1783
lclavicle 1.59028e-014 8.34896e-015
lhumerus 464.135 11.7415 -334.516
lradius 23.4051
lwrist 11.0697
lhand -44.9115 -44.5237
lfingers 7.12502
lthumb -17.6985 -15.3092
rfemur -59.4587 1.60095 26.9732
rtibia 50.7768
rfoot 13.8422 -3.99266
rtoes -7.66652
lfemur -63.6494 7.15592 -28.7453
ltibia 55.6058
lfoot 25.3642 -3.31755
ltoes 19.9669
555
root 3.8321 14.8497 10.539 99.9637 -30.0903 3.2788
lowerback -23.6834 6.64155 16.5787
upperback 1.23889 6.07255 -11.7957
thorax 18.1405 5.36974 -21.4117
lowerneck -10.4022 -2.42703 2.76275
upperneck 7.39215 -4.88283 12.6058
head 4.2111 -1.65791 3.10013
rclavicle 5.88403e-014 -8.63719e-014
rhumerus 77.9044 -28.6984 -32.8921
rradius 29.8148
rwrist 7.99798
rhand -37.5456 10.813
rfingers 7.12502
rthumb -10.6009 -18.8997
lclavicle 5.88403e-014 -8.63719e-014
lhumerus 463.944 11.9735 -334.653
lradius 22.8157
lwrist 9.84679
lhand -44.9573 -44.968
lfingers 7.12502
lthumb -17.7425 -15.7575
rfemur -59.8748 1.50933 26.9156
rtibia 52.5303
rfoot 14.0257 -3.70612
rtoes -7.28839
lfemur -63.8881 7.63882 -29.1026
ltibia 57.0912
lfoot 25.5131 -3.30097
ltoes 20.2203
556
root 3.8878 14.8641 10.5136 99.9067 -30.1152 3.42773
lowerback -23.6752 6.64208 16.674
upperback 1.11336 6.05282 -11.85
thorax 17.99 5.34741 -21.5474
lowerneck -10.5076 -2.50701 2.81954
upperneck 7.22078 -4.96206 12.3652
head 4.17145 -1.71361 3.00977
rclavicle 2.06736e-014 -8.46823e-014
rhumerus 77.9736 -29.008 -32.8843
rradius 29.2773
rwrist 11.2212
rhand -37.8221 10.6816
rfingers 7.12502
rthumb -10.8677 -19.0171
lclavicle 2.06736e-014 -8.46823e-014
lhumerus 463.689 12.2825 -334.809
lradius 22.2521
lwrist 8.53278
lhand -45.0783 -45.1815
lfingers 7.12502
lthumb -17.859 -15.9815
rfemur -60.3247 1.44241 26.8411
rtibia 54.4046
rfoot 14.3053 -3.32723
rtoes -6.76482
lfemur -64.0879 8.13207 -29.4382
ltibia 58.6458
lfoot 25.631 -3.14656
ltoes 20.4282
557
root 3.94136 14.8812 10.4907 99.8654 -30.1484 3.54856
lowerback -23.66 6.64546 16.7574
upperback 0.998248 6.03954 -11.8912
thorax 17.8476 5.32657 -21.6546
lowerneck -10.6228 -2.56112 2.95707
upperneck 7.03709 -5.00218 11.962
head 4.12037 -1.75663 2.85912
rclavicle 2.8625e-014 1.10524e-013
rhumerus 77.9603 -29.3638 -32.7568
rradius 28.8479
rwrist 14.4047
rhand -37.9934 10.1577
rfingers 7.12502
rthumb -11.0329 -19.5324
lclavicle 2.8625e-014 1.10524e-013
lhumerus 463.374 12.6565 -334.973
lradius 21.7099
lwrist 7.19262
lhand -45.2812 -45.1551
lfingers 7.12502
lthumb -18.0542 -15.973
rfemur -60.7975 1.40478 26.7468
rtibia 56.3691
rfoot 14.6725 -2.90816
rtoes -6.14391
lfemur -64.24 8.6298 -29.7532
ltibia 60.2414
lfoot 25.757 -2.89806
ltoes 20.7164
558
root 3.99336 14.901 10.4698 99.8388 -30.1845 3.65214
lowerback -23.6427 6.65517 16.837
upperback 0.890859 6.03595 -11.9267
thorax 17.7174 5.31099 -21.7472
lowerneck -10.7899 -2.6053 3.09839
upperneck 6.88682 -5.03569 11.5305
head 4.08663 -1.7942 2.69963
rclavicle 1.59028e-015 -2.98177e-014
rhumerus 77.8103 -29.7702 -32.4891
rradius 28.5461
rwrist 17.3079
rhand -37.9991 9.43807
rfingers 7.12502
rthumb -11.0384 -20.2517
lclavicle 1.59028e-015 -2.98177e-014
lhumerus 463.502 12.7094 -334.242
lradius 20.6103
lwrist 4.98642
lhand -45.5038 -45.3079
lfingers 7.12502
lthumb -18.2683 -16.1458
rfemur -61.2741 1.38328 26.6417
rtibia 58.3899
rfoot 15.0938 -2.50803
rtoes -5.33151
lfemur -64.3493 9.13317 -30.0482
ltibia 61.8579
lfoot 25.8684 -2.60045
ltoes 20.8105
559
root 4.04389 14.9231 10.4513 99.8326 -30.2241 3.74606
lowerback -23.6306 6.6714 16.9126
upperback 0.783158 6.04227 -11.9634
thorax 17.5949 5.30029 -21.834
lowerneck -10.9519 -2.64402 3.23605
upperneck 6.70079 -5.0609 11.126
head 4.04134 -1.82895 2.55005
rclavicle 3.97569e-014 8.13029e-014
rhumerus 77.5116 -30.2064 -32.0969
rradius 28.3559
rwrist 19.7287
rhand -37.8293 8.74819
rfingers 7.12502
rthumb -10.8746 -20.9502
lclavicle 3.97569e-014 8.13029e-014
lhumerus 463.674 12.7122 -333.268
lradius 19.5038
lwrist 2.67166
lhand -45.6814 -45.3762
lfingers 7.12502
lthumb -18.4392 -16.2302
rfemur -61.7487 1.36681 26.5321
rtibia 60.4419
rfoot 15.5374 -2.15533
rtoes -4.38393
lfemur -64.4212 9.62906 -30.3217
ltibia 63.4718
lfoot 26.0063 -2.29246
ltoes 20.9156
560
root 4.09335 14.9471 10.4349 99.847 -30.2604 3.83768
lowerback -23.6266 6.69497 16.9911
upperback 0.669164 6.05754 -12.0039
thorax 17.4752 5.29387 -21.923
lowerneck -11.0591 -2.6785 3.39061
upperneck 6.42284 -5.07339 10.7511
head 3.95862 -1.86265 2.40887
rclavicle 7.63333e-014 -3.97569e-016
rhumerus 77.067 -30.6478 -31.6088
rradius 28.2521
rwrist 21.5321
rhand -37.5051 8.23715
rfingers 7.12502
rthumb -10.5619 -21.4775
lclavicle 7.63333e-014 -3.97569e-016
lhumerus 463.896 12.6323 -332.02
lradius 18.4013
lwrist 0.277108
lhand -45.8108 -45.3743
lfingers 7.12502
lthumb -18.5637 -16.2401
rfemur -62.2089 1.34759 26.4317
rtibia 62.5004
rfoot 15.9744 -1.89457
rtoes -3.31427
lfemur -64.4564 10.1076 -30.5629
ltibia 65.0648
lfoot 26.155 -2.01948
ltoes 20.8546
561
root 4.14162 14.9726 10.4208 99.8676 -30.2981 3.93959
lowerback -23.6262 6.72094 17.0645
upperback 0.547092 6.07842 -12.0527
thorax 17.3519 5.28908 -22.0169
lowerneck -11.0662 -2.70785 3.57031
upperneck 6.00917 -5.06681 10.4169
head 3.81772 -1.89499 2.27938
rclavicle 0 -9.11428e-014
rhumerus 76.4885 -31.0736 -31.0646
rradius 28.2048
rwrist 22.7079
rhand -37.0984 7.92052
rfingers 7.12502
rthumb -10.1696 -21.8137
lclavicle 0 -9.11428e-014
lhumerus 464.178 12.4265 -330.43
lradius 17.3172
lwrist -2.22724
lhand -45.8356 -45.2617
lfingers 7.12502
lthumb -18.5875 -16.1297
rfemur -62.6362 1.31202 26.3412
rtibia 64.5495
rfoot 16.3737 -1.71888
rtoes -2.13893
lfemur -64.4412 10.5534 -30.7715
ltibia 66.6143
lfoot 26.368 -1.82546
ltoes 20.8936
